# xmcd
#
# Track frame offsets: 
#        150
#        5707
#        17952
#        29220
#        39658
#        48058
#        62322
#        71533
#        76405
#        100161
#        115692
#        129654
#        139473
#        151613
#        166049
#        173628
#        189207
#        209344
#
# Disc length: 2986 seconds
#
# Revision: 0
# Processed by: cddbd v1.5.2PL0 Copyright (c) Steve Scherf et al.
# Submitted via: ExactAudioCopy v0.99pb3
#
DISCID=e70ba812
DTITLE=NED - Il Fuoco Di NED
DYEAR=2007
DGENRE=Ambient
TTITLE0=Fuoco Fatuo
TTITLE1=Fuoco Pericoloso
TTITLE2=Fuoco Battente
TTITLE3=Fuoco Lento
TTITLE4=Fuoco Viola
TTITLE5=Due Fuochi
TTITLE6=Lapilli
TTITLE7=Fuoco Blu
TTITLE8=Fuoco Di Paglia 1
TTITLE9=Fiamme
TTITLE10=Fuoco Scuro
TTITLE11=Fuoco Metropolitano
TTITLE12=Fuoco Pulito
TTITLE13=Fuoco Dell'Est
TTITLE14=Fuoco Delicato
TTITLE15=Fuoco Dimenticato
TTITLE16=Incendi
TTITLE17=Fuoco Di Paglia 2
EXTD=
EXTT0=
EXTT1=
EXTT2=
EXTT3=
EXTT4=
EXTT5=
EXTT6=
EXTT7=
EXTT8=
EXTT9=
EXTT10=
EXTT11=
EXTT12=
EXTT13=
EXTT14=
EXTT15=
EXTT16=
EXTT17=
PLAYORDER=
